<?xml version="1.0" standalone="no"?>
<!DOCTYPE svg PUBLIC "-//W3C//DTD SVG 20010904//EN"
 "http://www.w3.org/TR/2001/REC-SVG-20010904/DTD/svg10.dtd">
<svg version="1.0" xmlns="http://www.w3.org/2000/svg"
 width="1280.000000pt" height="1280.000000pt" viewBox="0 0 1280.000000 1280.000000"
 preserveAspectRatio="xMidYMid meet">
<metadata>
Created by potrace 1.14, written by Peter Selinger 2001-2017
</metadata>
<g transform="translate(0.000000,1280.000000) scale(0.100000,-0.100000)"
fill="#000000" stroke="none">
<path d="M4816 12458 c-13 -16 -22 -36 -19 -46 2 -9 -3 -31 -11 -47 -9 -17
-16 -48 -16 -70 0 -23 -5 -46 -12 -53 -6 -6 -12 -40 -13 -75 -3 -71 -19 -112
-41 -103 -13 5 -15 -15 -15 -137 1 -78 1 -171 0 -207 0 -36 1 -67 2 -70 1 -3
0 -51 -1 -107 -2 -101 -1 -103 26 -126 24 -21 28 -32 28 -80 1 -31 5 -55 11
-54 6 1 11 -15 13 -35 2 -21 7 -38 13 -38 5 0 9 -18 9 -39 0 -25 5 -41 15 -45
8 -3 15 -15 15 -26 0 -11 5 -20 11 -20 6 0 8 -8 4 -19 -7 -24 19 -51 51 -51
13 0 24 -6 24 -12 0 -7 18 -33 40 -57 22 -25 40 -48 40 -53 0 -18 -30 -7 -46
17 -9 14 -25 25 -36 25 -16 0 -18 3 -9 14 14 17 4 46 -14 40 -20 -8 -75 45
-75 73 0 13 -5 22 -12 20 -8 -1 -12 8 -10 26 3 19 -1 27 -12 27 -10 0 -16 9
-16 23 -1 39 -33 92 -59 95 -13 2 -28 -2 -32 -10 -7 -11 -11 -10 -19 2 -7 11
-9 1 -8 -34 1 -31 -3 -51 -10 -54 -9 -3 -12 -53 -10 -180 1 -130 3 -158 8
-107 6 61 7 55 7 -49 1 -98 4 -122 17 -131 10 -8 16 -27 16 -54 0 -42 15 -80
38 -94 6 -4 12 -17 12 -28 0 -11 5 -17 10 -14 6 4 10 -12 10 -39 0 -30 4 -45
12 -44 6 2 14 -6 16 -17 2 -11 9 -23 15 -27 6 -4 10 -23 9 -42 -2 -27 1 -36
13 -36 9 0 15 -9 15 -25 0 -14 6 -25 14 -25 9 0 12 -8 8 -25 -3 -19 0 -25 13
-25 12 0 15 -5 10 -20 -4 -13 -1 -22 9 -26 9 -3 16 -16 16 -28 0 -12 11 -30
25 -40 14 -10 25 -25 25 -33 0 -17 24 -43 39 -43 6 0 11 -5 11 -11 0 -6 14
-28 30 -49 17 -21 30 -42 30 -47 0 -6 9 -18 20 -28 11 -10 20 -27 20 -38 0
-11 20 -37 44 -58 24 -21 49 -52 56 -69 7 -16 16 -30 21 -30 5 0 9 -7 9 -15 0
-20 -19 -19 -55 5 -16 11 -24 20 -16 20 11 0 8 6 -7 20 -12 11 -35 20 -52 20
-24 0 -30 4 -30 21 0 26 -23 49 -48 49 -10 0 -27 10 -38 21 -10 12 -29 25 -41
30 -13 5 -23 16 -23 24 0 19 -23 45 -39 45 -6 0 -11 7 -11 15 0 8 -4 15 -10
15 -5 0 -10 12 -10 26 0 22 -4 25 -27 22 -25 -3 -28 0 -26 23 1 22 -4 28 -25
32 -35 7 -42 1 -42 -32 0 -16 -7 -42 -15 -57 -20 -39 -20 -122 1 -145 9 -10
13 -23 9 -29 -6 -9 -10 -9 -16 1 -5 9 -9 -14 -9 -58 0 -46 4 -73 12 -75 16 -6
46 -137 42 -187 -3 -31 0 -41 11 -41 10 0 15 -11 15 -36 0 -21 4 -33 10 -29
10 6 14 -13 11 -55 -1 -18 1 -21 7 -12 7 10 11 7 17 -15 5 -15 7 -36 6 -46 -1
-9 13 -32 32 -50 19 -17 40 -44 48 -59 8 -14 35 -49 62 -76 26 -28 47 -56 47
-62 0 -18 87 -100 106 -100 9 0 32 -16 51 -35 19 -19 44 -35 54 -35 10 0 19
-6 19 -14 0 -9 12 -16 28 -18 16 -2 31 -12 37 -25 7 -17 15 -21 34 -16 20 5
23 3 18 -11 -5 -13 0 -16 28 -16 35 0 55 -14 33 -24 -7 -3 3 -5 22 -5 67 2 77
0 60 -11 -12 -8 -11 -10 6 -10 12 0 25 -7 28 -16 4 -12 15 -15 37 -12 20 3 33
0 36 -9 3 -8 21 -13 44 -13 29 0 39 -4 39 -16 0 -12 6 -15 24 -10 15 4 26 1
28 -6 3 -7 15 -13 29 -14 13 -1 32 -4 42 -8 9 -3 24 -8 33 -11 9 -3 14 -11 10
-20 -4 -11 1 -15 18 -15 13 0 26 -7 30 -15 3 -9 19 -15 41 -15 19 0 35 -5 35
-11 0 -7 12 -10 33 -7 41 7 57 1 50 -19 -5 -12 -1 -14 15 -8 16 5 22 2 22 -9
0 -10 9 -16 24 -16 13 0 27 -7 30 -16 3 -8 10 -13 15 -10 5 4 16 -1 24 -9 9
-8 32 -15 51 -15 20 0 36 -4 36 -10 0 -5 6 -10 14 -10 7 0 19 -7 26 -15 7 -8
16 -13 20 -10 11 7 51 -26 47 -38 -4 -14 17 -37 34 -37 7 0 29 -18 50 -40 25
-27 47 -40 64 -40 14 0 24 -4 21 -9 -3 -5 4 -11 15 -14 11 -3 23 -15 26 -26
10 -38 38 -22 138 79 55 55 108 100 117 100 10 0 18 7 18 17 0 9 3 13 7 10 9
-10 73 62 73 82 0 33 -13 61 -27 61 -10 0 -13 6 -9 17 6 14 -20 49 -41 56 -5
1 -7 12 -5 25 2 14 -2 22 -13 22 -9 0 -15 9 -15 25 0 14 -4 25 -10 25 -5 0 -7
7 -4 15 4 10 0 15 -15 15 -14 0 -21 6 -21 19 0 10 -7 24 -15 31 -8 7 -12 16
-9 22 3 5 -8 22 -25 39 -24 22 -30 35 -25 53 4 16 1 25 -10 29 -9 4 -16 16
-16 27 0 11 -4 20 -10 20 -5 0 -10 9 -10 20 0 20 -32 60 -49 60 -5 0 -7 8 -4
19 3 10 0 22 -6 25 -6 4 -11 16 -11 28 0 11 -8 22 -20 25 -11 3 -18 9 -15 13
3 4 -2 11 -11 14 -9 4 -14 13 -10 21 3 9 -1 18 -9 21 -8 4 -15 17 -15 30 0 13
-4 24 -10 24 -5 0 -10 9 -10 20 0 11 -7 23 -15 26 -8 4 -15 16 -15 28 0 12
-11 30 -25 40 -18 14 -25 28 -25 52 0 19 -4 34 -10 34 -5 0 -10 9 -10 20 0 11
-7 23 -15 26 -8 4 -15 16 -15 28 0 12 -11 30 -25 40 -14 10 -25 27 -25 37 0
11 -7 19 -15 19 -8 0 -15 5 -15 11 0 6 -7 17 -15 26 -8 8 -13 19 -9 24 3 5 -2
16 -10 25 -9 8 -16 22 -16 30 0 8 -4 14 -10 14 -5 0 -10 8 -10 19 0 10 -6 24
-14 31 -8 6 -13 17 -10 24 3 8 -2 16 -10 19 -9 4 -16 16 -16 27 0 11 -4 20
-10 20 -5 0 -10 11 -10 25 0 16 -6 25 -15 25 -9 0 -15 9 -15 25 0 14 -4 25
-10 25 -5 0 -10 11 -10 25 0 15 -6 25 -14 25 -10 0 -14 9 -13 28 2 22 -2 26
-18 24 -11 -2 -17 -1 -13 3 4 4 -5 25 -19 48 -14 22 -26 45 -27 51 -1 6 -8 21
-14 34 -7 12 -10 27 -7 32 3 6 -1 10 -9 10 -9 0 -16 5 -16 10 0 17 -3 25 -16
38 -7 7 -11 19 -8 27 4 9 0 15 -10 15 -10 0 -16 9 -16 25 0 14 -4 25 -10 25
-5 0 -10 11 -10 24 0 13 -7 26 -15 30 -8 3 -15 17 -15 31 0 15 -4 24 -10 20
-6 -3 -10 5 -10 18 0 14 -7 27 -15 31 -8 3 -15 17 -15 31 0 15 -4 24 -10 20
-5 -3 -10 -1 -10 4 0 6 -7 11 -15 11 -9 0 -15 9 -15 24 0 14 -4 28 -10 31 -5
3 -10 21 -10 38 0 21 -3 28 -9 19 -7 -11 -10 -10 -15 3 -3 9 -6 28 -6 41 0 13
-4 24 -10 24 -5 0 -10 11 -10 25 0 16 -6 25 -15 25 -9 0 -15 9 -15 25 0 14 -4
25 -10 25 -5 0 -10 8 -10 18 0 9 -7 25 -15 35 -7 11 -11 25 -8 33 3 9 -1 14
-12 14 -9 0 -14 4 -11 9 3 4 -1 17 -9 27 -8 10 -15 34 -15 52 0 20 -5 32 -13
32 -8 0 -20 11 -27 25 -7 14 -19 25 -27 25 -8 0 -13 13 -14 38 0 30 -2 33 -9
17 -7 -16 -9 -11 -9 21 -1 28 -6 44 -16 48 -8 3 -15 14 -15 25 0 10 -7 22 -16
25 -9 4 -14 13 -10 21 3 9 -3 24 -14 35 -12 12 -17 26 -13 36 4 12 3 15 -5 10
-8 -5 -10 -2 -6 8 3 9 2 16 -4 16 -6 0 -8 9 -5 20 3 12 -1 22 -11 26 -10 4
-16 18 -16 38 0 22 -8 37 -25 50 -18 14 -25 29 -26 55 -1 20 -3 28 -6 18 -2
-9 -9 -15 -14 -11 -5 3 -7 10 -4 15 4 5 -1 9 -9 9 -10 0 -16 9 -16 25 0 14 -4
25 -10 25 -5 0 -10 15 -10 34 0 21 -6 36 -16 40 -8 3 -13 10 -10 15 8 13 -4
42 -15 35 -8 -4 -11 9 -8 32 0 4 -5 10 -11 14 -7 4 -14 23 -16 41 -2 19 -9 36
-14 37 -6 2 -10 12 -10 22 0 10 -6 20 -14 23 -10 4 -13 16 -10 36 4 22 1 33
-10 37 -9 3 -16 17 -16 30 0 13 -4 24 -10 24 -5 0 -10 9 -10 20 0 11 -7 23
-15 26 -8 4 -15 16 -15 28 0 12 -11 30 -25 40 -16 12 -25 29 -25 47 0 16 -4
29 -10 29 -5 0 -10 11 -10 25 0 14 -7 28 -15 31 -8 4 -15 17 -15 29 0 13 -4
27 -10 30 -5 3 -10 18 -10 33 0 22 -5 27 -25 27 -15 0 -35 -11 -49 -27z m-96
-452 c0 -14 -4 -28 -10 -31 -6 -4 -10 7 -10 24 0 17 5 31 10 31 6 0 10 -11 10
-24z m0 -542 c0 -13 -4 -24 -10 -24 -5 0 -10 14 -10 31 0 17 4 28 10 24 6 -3
10 -17 10 -31z"/>
<path d="M1214 10475 c-6 -16 2 -346 10 -425 3 -25 10 -46 16 -48 6 -2 10 -38
10 -87 0 -61 4 -86 15 -95 10 -8 15 -30 15 -61 0 -27 5 -49 10 -49 6 0 10 -22
10 -49 0 -34 4 -51 15 -55 9 -3 15 -18 15 -40 0 -19 4 -37 9 -41 5 -3 12 -18
16 -35 3 -16 15 -46 25 -67 38 -82 60 -132 60 -143 0 -17 98 -209 138 -270 20
-30 47 -72 61 -94 29 -44 47 -75 57 -96 4 -8 21 -31 38 -51 17 -20 42 -54 56
-74 14 -20 32 -45 41 -55 9 -10 18 -22 20 -28 2 -5 28 -35 57 -66 28 -32 52
-62 52 -68 0 -16 324 -341 403 -405 37 -30 86 -72 110 -93 23 -22 45 -40 49
-40 8 0 14 -5 101 -79 27 -23 51 -41 55 -41 4 0 23 -15 42 -33 19 -18 46 -38
60 -45 14 -6 45 -28 70 -47 25 -19 62 -44 83 -55 22 -12 60 -37 87 -56 26 -19
50 -34 54 -34 4 0 29 -16 57 -35 28 -19 56 -35 61 -35 6 0 53 -26 107 -58 53
-32 143 -81 201 -109 58 -28 147 -72 199 -97 51 -25 98 -46 103 -46 6 0 31
-10 57 -23 25 -13 100 -45 166 -71 66 -26 127 -51 135 -55 9 -5 31 -12 50 -16
19 -4 44 -13 55 -20 11 -8 40 -19 65 -26 25 -7 54 -19 65 -26 11 -7 32 -13 47
-13 15 0 30 -4 33 -10 3 -5 18 -10 32 -10 13 0 36 -9 50 -20 15 -12 34 -18 44
-15 18 6 134 -30 154 -47 5 -4 23 -8 40 -8 16 0 66 -11 109 -25 43 -14 88 -25
100 -25 12 0 34 -7 51 -16 16 -8 38 -14 50 -13 43 3 65 -1 65 -14 0 -18 -67
-40 -125 -41 -32 -1 -54 -7 -62 -16 -9 -12 -48 -15 -222 -16 -179 -1 -213 -4
-226 -18 -10 -9 -12 -16 -5 -16 7 0 9 -8 5 -20 -5 -16 0 -22 22 -31 15 -6 35
-17 43 -24 8 -7 88 -50 176 -94 89 -44 165 -84 168 -89 3 -6 15 -8 25 -5 11 3
30 -2 43 -11 12 -9 32 -16 43 -16 11 0 45 -9 75 -21 30 -11 75 -25 100 -31 25
-5 54 -13 65 -18 25 -11 79 -19 222 -33 61 -7 115 -15 119 -19 11 -12 192 -10
196 2 2 5 40 11 85 12 46 2 83 6 83 11 0 4 12 7 28 7 30 0 127 42 154 67 9 8
22 13 28 11 13 -4 -67 -79 -121 -115 -45 -29 -177 -93 -193 -93 -7 0 -21 -7
-32 -15 -10 -8 -33 -15 -49 -15 -17 0 -36 -5 -43 -12 -7 -7 -30 -11 -53 -9
-23 1 -51 -4 -63 -12 -16 -10 -81 -16 -255 -21 -128 -3 -238 -9 -242 -12 -5
-3 -7 -9 -4 -14 8 -12 244 -130 261 -130 8 0 25 -5 37 -12 12 -6 46 -13 76
-15 30 -2 59 -8 66 -13 15 -13 235 -14 265 -2 14 6 51 14 82 17 32 4 60 11 63
16 4 5 21 9 39 9 18 0 54 11 82 23 27 13 76 34 109 47 33 13 69 32 81 42 11
10 24 18 28 18 10 0 124 83 158 114 15 15 32 26 38 26 17 0 88 69 111 108 12
21 42 56 66 79 23 23 43 49 43 57 0 8 10 25 23 38 48 49 159 320 178 438 6 30
12 100 15 156 5 81 3 107 -10 132 -9 17 -16 45 -16 62 0 33 -21 109 -47 171
-8 20 -14 49 -12 65 4 39 -105 263 -186 383 -17 24 -42 62 -57 85 -27 41 -186
206 -198 206 -4 0 -28 16 -53 35 -55 42 -96 65 -302 168 -87 43 -180 86 -206
93 -26 8 -52 21 -59 29 -7 8 -25 15 -41 15 -16 0 -53 11 -82 24 -30 13 -85 31
-123 41 -38 9 -78 23 -89 31 -10 8 -31 14 -46 14 -15 0 -32 6 -38 13 -6 8 -23
12 -40 9 -17 -2 -39 3 -53 12 -12 9 -36 16 -52 16 -45 0 -156 37 -156 52 0 5
-9 6 -20 3 -12 -4 -44 0 -73 8 -67 19 -140 36 -197 46 -25 4 -55 13 -67 19
-12 7 -37 12 -56 12 -19 0 -40 7 -47 15 -9 10 -22 14 -39 10 -14 -3 -39 2 -55
10 -15 8 -43 15 -60 15 -17 0 -40 6 -51 14 -11 7 -40 16 -65 19 -80 10 -114
20 -142 40 -18 13 -34 18 -52 13 -19 -5 -31 -1 -46 14 -21 21 -45 26 -55 10
-3 -5 -19 -1 -38 10 -18 11 -41 20 -53 20 -11 0 -29 7 -40 15 -10 8 -27 15
-36 15 -21 0 -264 77 -292 92 -10 5 -42 17 -70 25 -28 8 -62 21 -76 29 -14 7
-54 23 -89 34 -36 12 -96 36 -135 55 -39 18 -84 37 -101 41 -16 4 -46 18 -65
31 -19 12 -40 23 -46 23 -9 0 -133 60 -184 89 -8 5 -31 16 -50 25 -19 9 -42
20 -50 25 -8 5 -31 16 -50 25 -19 9 -42 20 -50 25 -8 5 -26 14 -40 20 -14 6
-52 27 -85 46 -33 18 -82 46 -110 61 -27 14 -63 36 -80 49 -16 12 -46 30 -65
40 -18 10 -40 24 -48 32 -8 7 -33 23 -56 35 -22 11 -55 31 -72 44 -17 13 -35
24 -40 24 -5 1 -27 19 -49 40 -22 22 -48 43 -57 46 -23 7 -102 61 -203 139
-43 33 -88 67 -101 76 -13 9 -45 36 -72 60 -26 24 -60 53 -77 63 -32 21 -114
90 -205 174 -59 54 -77 62 -86 37z"/>
<path d="M8569 8816 c-20 -7 -65 -14 -100 -15 -35 -1 -77 -6 -94 -11 -16 -5
-63 -11 -103 -14 -40 -2 -78 -9 -85 -14 -7 -6 -40 -12 -73 -15 -34 -3 -71 -10
-82 -16 -11 -6 -33 -11 -49 -11 -15 0 -48 -7 -72 -16 -25 -8 -56 -12 -72 -9
-22 5 -29 3 -29 -8 0 -14 -77 -34 -88 -22 -3 2 -10 -2 -16 -10 -6 -8 -23 -16
-38 -18 -15 -1 -30 -6 -34 -10 -4 -4 -14 -7 -21 -7 -17 0 -162 -70 -169 -81
-3 -5 -16 -9 -30 -9 -39 0 -314 -150 -371 -203 -12 -11 -37 -29 -56 -41 -98
-62 -269 -213 -292 -258 -14 -29 -13 -31 17 -56 47 -39 78 -75 78 -89 0 -29
36 -39 111 -30 75 9 401 13 474 5 45 -4 120 -25 150 -41 11 -6 34 -12 50 -14
17 -2 54 -15 84 -30 68 -33 80 -26 102 58 36 134 102 276 172 372 23 31 55 76
72 100 40 57 150 166 203 202 24 16 52 39 62 52 10 13 23 23 29 23 10 0 40 16
106 57 73 45 165 90 270 132 11 5 33 14 49 20 78 32 -69 58 -155 27z"/>
<path d="M9285 8808 c-2 -7 -20 -58 -39 -113 -46 -135 -66 -183 -126 -299 -51
-99 -146 -243 -185 -281 -12 -11 -31 -36 -43 -56 -53 -88 -278 -265 -432 -340
-70 -34 -200 -79 -228 -79 -11 0 -24 -4 -27 -10 -3 -5 -15 -10 -26 -10 -14 0
-19 -7 -19 -25 0 -16 6 -25 15 -25 15 0 125 -107 125 -122 0 -4 6 -13 13 -20
15 -16 117 -156 117 -161 0 -2 23 -43 50 -91 28 -48 50 -91 50 -96 0 -4 3 -10
8 -12 9 -4 62 -110 62 -125 0 -33 60 -35 125 -4 42 20 135 41 182 41 27 0 54
5 59 10 7 7 70 9 180 7 176 -5 284 -16 344 -35 19 -6 76 -23 125 -37 50 -15
114 -38 143 -51 29 -13 57 -24 62 -24 6 0 18 -4 28 -9 9 -5 58 -29 107 -52 50
-23 101 -50 115 -59 14 -10 52 -32 85 -50 33 -18 81 -48 106 -66 26 -19 52
-34 58 -34 6 0 11 -4 11 -8 0 -5 17 -18 38 -30 21 -11 46 -30 57 -42 10 -11
23 -20 29 -20 6 0 27 -15 46 -33 19 -18 62 -54 95 -81 33 -26 84 -70 113 -97
29 -27 57 -49 63 -49 24 0 479 -455 479 -479 0 -4 23 -32 51 -62 28 -29 62
-72 77 -94 30 -46 50 -65 69 -65 23 0 14 31 -24 87 -21 30 -49 72 -63 92 -43
65 -63 94 -125 179 -33 45 -70 97 -83 115 -13 18 -50 62 -83 99 -33 37 -74 86
-91 109 -16 23 -43 56 -58 73 -56 61 -157 182 -194 231 -21 28 -55 70 -75 95
-20 25 -43 55 -51 67 -8 11 -44 63 -79 115 -128 184 -246 458 -291 673 -11 52
-29 115 -40 140 -5 11 -12 36 -15 55 -4 19 -15 53 -24 75 -10 22 -24 60 -32
85 -7 25 -23 66 -36 91 -13 26 -23 53 -23 60 -1 8 -21 48 -45 89 -24 41 -54
93 -66 115 -12 22 -36 60 -53 85 -17 25 -35 52 -41 61 -51 83 -314 369 -339
369 -5 0 -46 26 -90 58 -81 57 -121 82 -131 82 -3 0 -8 -6 -10 -12z m239 -781
c46 -48 77 -130 57 -150 -6 -6 -11 -18 -11 -27 0 -20 -45 -62 -83 -78 -38 -16
-72 -15 -110 4 -73 37 -107 92 -107 175 0 40 5 53 34 83 32 35 36 36 106 36
73 0 73 0 114 -43z"/>
<path d="M9025 8783 c-92 -3 -121 -7 -128 -18 -4 -8 -21 -15 -37 -15 -32 0
-150 -28 -165 -40 -5 -4 -38 -15 -72 -25 -35 -11 -63 -22 -63 -26 0 -4 -12
-12 -27 -18 -87 -35 -373 -252 -373 -283 0 -10 -55 -72 -102 -117 -16 -14 -28
-33 -28 -43 0 -10 -9 -23 -20 -30 -11 -7 -20 -19 -20 -26 0 -8 -13 -34 -30
-59 -16 -24 -30 -48 -30 -52 0 -16 -32 -71 -41 -71 -5 0 -9 -16 -9 -35 0 -19
-4 -35 -9 -35 -5 0 -13 -10 -16 -22 -4 -13 -13 -37 -21 -55 -8 -17 -17 -45
-20 -61 -6 -28 -4 -30 32 -35 64 -9 297 -2 319 10 11 5 51 13 89 16 38 4 74
11 80 17 5 5 18 10 28 10 10 0 18 5 18 10 0 6 6 10 14 10 17 0 201 94 246 126
84 60 320 305 320 333 0 4 19 37 42 72 46 72 138 259 138 282 0 8 7 28 15 43
8 16 15 41 15 57 0 15 5 27 10 27 16 0 11 47 -6 54 -9 3 -19 5 -22 4 -4 -1
-61 -4 -127 -5z"/>
<path d="M7036 7792 c-50 -2 -95 -7 -100 -11 -6 -5 -23 -11 -38 -15 -41 -9
-36 -44 21 -157 77 -151 109 -246 120 -349 4 -36 12 -75 19 -87 18 -33 16
-300 -2 -345 -8 -19 -12 -44 -9 -56 3 -11 -2 -35 -11 -53 -9 -18 -16 -42 -16
-53 0 -12 -6 -30 -14 -41 -7 -11 -16 -33 -20 -50 -10 -41 -84 -191 -102 -206
-8 -6 -14 -18 -14 -25 0 -8 -4 -14 -10 -14 -5 0 -10 -6 -10 -13 0 -8 -11 -24
-24 -36 -13 -13 -27 -33 -30 -44 -6 -25 -145 -163 -191 -191 -16 -10 -41 -29
-55 -42 -26 -24 -186 -124 -199 -124 -4 0 -30 -11 -58 -25 -28 -13 -64 -27
-80 -30 -15 -4 -44 -13 -64 -20 -20 -8 -39 -11 -42 -8 -3 3 -18 -4 -33 -16
-22 -18 -35 -20 -79 -15 -40 5 -59 3 -76 -10 -19 -13 -49 -16 -152 -16 -71 0
-137 4 -147 10 -10 5 -52 14 -92 19 -151 20 -191 33 -385 128 l-132 65 -56
-49 c-31 -26 -64 -61 -72 -78 -8 -16 -25 -41 -38 -55 -33 -38 -105 -144 -105
-157 0 -6 -9 -13 -20 -16 -12 -3 -20 -14 -20 -26 0 -12 -9 -30 -20 -41 -11
-11 -20 -24 -20 -29 0 -5 -31 -72 -70 -150 -38 -77 -70 -147 -70 -155 0 -8 -4
-17 -8 -20 -5 -3 -17 -33 -27 -68 -10 -35 -23 -67 -29 -73 -23 -21 -113 -310
-121 -390 -1 -11 -6 -31 -12 -45 -6 -14 -14 -47 -18 -75 -4 -27 -10 -54 -15
-60 -4 -5 -10 -36 -13 -67 -3 -32 -9 -63 -13 -70 -4 -6 -9 -35 -10 -63 -2 -28
-8 -64 -15 -81 -13 -32 -23 -198 -11 -192 50 25 62 33 62 41 0 6 6 18 14 26 8
9 26 41 42 71 24 49 72 127 111 185 7 11 25 38 40 60 14 22 36 49 48 60 13 11
30 34 39 50 8 17 36 53 61 80 24 28 45 54 45 59 0 10 36 49 195 210 128 129
168 165 222 199 22 14 49 37 59 50 19 23 68 59 143 104 20 12 41 26 48 32 31
27 179 96 287 132 67 23 130 44 141 49 40 16 171 40 215 40 26 0 51 5 57 11
15 15 463 21 593 9 172 -17 272 -30 291 -40 10 -6 40 -10 68 -10 27 0 53 -4
56 -10 3 -5 21 -10 38 -10 18 0 49 -9 70 -20 21 -11 50 -19 65 -18 15 1 37 -4
49 -10 12 -7 31 -12 43 -12 12 0 60 -13 107 -30 46 -16 94 -30 105 -30 25 0
256 224 326 315 25 33 58 74 73 90 37 40 124 156 168 226 64 100 95 144 118
166 13 12 23 28 23 35 0 16 -78 98 -94 98 -23 0 -185 181 -224 252 -10 18 -33
62 -51 98 -19 36 -41 81 -51 100 -21 40 -82 229 -100 310 -7 30 -14 80 -15
110 -1 30 -7 73 -13 95 -7 24 -12 120 -12 241 l0 202 -33 25 c-44 33 -161 86
-209 93 -21 4 -38 10 -38 15 0 5 -16 9 -35 9 -19 0 -54 6 -77 14 -50 16 -135
22 -262 18z"/>
<path d="M7798 7619 c-10 -5 -21 -26 -26 -47 -13 -52 -14 -351 -2 -447 17
-137 22 -170 29 -175 9 -6 31 -96 34 -135 1 -21 8 -32 22 -35 14 -4 21 -16 23
-38 2 -18 10 -36 18 -39 8 -3 14 -13 14 -23 0 -11 5 -22 10 -25 6 -3 10 -15
10 -26 0 -11 7 -22 15 -25 8 -4 15 -14 15 -24 0 -23 31 -50 58 -50 13 0 44 22
75 53 54 53 118 97 142 97 7 0 15 10 17 23 2 14 11 23 26 25 12 2 22 8 22 13
0 5 8 9 19 9 10 0 24 7 31 15 7 8 21 15 31 15 11 0 19 5 19 10 0 6 8 10 19 10
10 0 24 7 31 15 7 8 25 15 40 15 41 0 64 31 55 76 -7 41 -58 122 -81 131 -8 3
-14 10 -14 17 0 19 -132 214 -160 236 -3 3 -22 27 -41 53 -67 94 -76 105 -112
137 -20 17 -37 38 -37 46 0 8 -4 14 -10 14 -5 0 -10 8 -10 18 0 28 -58 50
-152 56 -47 3 -92 8 -100 11 -7 2 -21 0 -30 -6z"/>
<path d="M8485 6751 c-22 -10 -46 -25 -54 -34 -7 -10 -22 -17 -32 -17 -11 0
-19 -4 -19 -10 0 -5 -9 -10 -20 -10 -10 0 -23 -6 -27 -13 -4 -6 -28 -22 -53
-34 -25 -12 -60 -36 -78 -53 -18 -16 -38 -30 -43 -30 -5 0 -30 -19 -54 -41
-69 -63 -65 -75 62 -196 121 -115 142 -124 169 -68 9 19 19 35 23 35 4 0 15
19 26 43 10 23 27 55 39 72 26 37 46 74 46 87 0 5 14 39 32 76 30 66 68 175
68 200 0 17 -38 15 -85 -7z"/>
<path d="M6146 5375 c-4 -11 -22 -15 -75 -15 -39 0 -71 -5 -73 -10 -2 -6 -29
-11 -60 -11 -39 -1 -58 -5 -62 -15 -3 -8 -18 -14 -33 -14 -25 0 -85 -18 -138
-41 -11 -5 -54 -22 -95 -38 -41 -16 -94 -39 -118 -51 -25 -12 -51 -18 -63 -15
-15 5 -19 2 -19 -19 0 -19 -5 -26 -19 -26 -10 0 -24 -7 -31 -15 -7 -8 -18 -15
-25 -15 -7 0 -23 -11 -36 -25 -13 -13 -31 -25 -40 -25 -9 0 -24 -9 -35 -21
-10 -12 -36 -30 -56 -40 -21 -11 -38 -23 -38 -27 0 -4 -17 -18 -37 -32 -21
-14 -54 -42 -75 -62 -21 -21 -47 -38 -58 -38 -12 0 -20 -7 -20 -17 -1 -23 -96
-117 -110 -108 -6 4 -10 -4 -10 -18 0 -14 -10 -32 -25 -43 -14 -10 -25 -26
-25 -34 0 -8 -17 -31 -36 -50 -20 -19 -43 -48 -51 -65 -9 -16 -24 -41 -34 -54
-21 -26 -26 -81 -8 -81 6 0 25 -13 42 -30 55 -51 156 -130 166 -130 6 0 26
-13 44 -30 19 -16 39 -30 44 -30 5 0 38 -15 73 -34 36 -19 84 -40 108 -47 23
-7 42 -15 42 -19 0 -3 15 -5 33 -4 17 2 48 -5 67 -14 29 -14 72 -17 260 -18
164 -1 232 2 250 11 14 7 41 16 60 19 57 11 173 46 203 62 16 8 33 14 39 14
26 0 417 193 458 226 14 11 57 40 95 64 39 24 94 62 124 84 29 23 70 52 90 65
20 13 59 45 86 71 28 26 72 64 99 85 100 74 456 452 456 482 0 6 -26 21 -57
33 -32 12 -66 26 -75 31 -22 11 -89 28 -148 38 -25 4 -55 13 -67 19 -12 7 -36
12 -53 12 -19 0 -33 6 -37 16 -4 12 -14 15 -42 10 -23 -3 -47 0 -65 9 -16 9
-55 15 -92 15 -34 0 -65 4 -69 10 -3 5 -12 7 -19 4 -8 -3 -17 -1 -21 5 -4 7
-101 11 -295 11 -247 0 -289 -2 -294 -15z"/>
<path d="M4558 4249 c-15 -11 -37 -37 -50 -57 -12 -20 -41 -62 -64 -92 -23
-30 -50 -71 -60 -91 -29 -57 -128 -259 -148 -304 -31 -68 -86 -242 -86 -272 0
-16 -6 -37 -14 -48 -7 -11 -16 -41 -20 -66 -6 -43 -5 -47 16 -53 34 -9 195 -6
253 4 28 5 82 15 122 22 39 7 75 16 79 21 4 4 24 7 44 7 20 0 40 3 44 7 10 10
117 43 142 43 11 0 24 4 30 9 5 4 32 16 59 26 28 10 55 22 60 25 6 4 35 17 65
28 69 25 353 166 394 195 17 12 38 27 48 32 9 6 44 29 77 53 33 23 65 42 69
42 5 0 17 9 28 21 10 12 31 27 46 35 18 9 25 20 22 29 -5 12 -29 15 -128 15
-68 0 -126 3 -130 8 -4 4 -62 12 -129 19 -166 16 -198 23 -229 44 -14 11 -33
16 -42 13 -9 -3 -27 1 -41 10 -13 9 -30 16 -38 16 -19 0 -135 58 -173 87 -17
13 -35 23 -40 23 -13 1 -62 47 -118 113 -27 31 -51 57 -55 57 -3 0 -18 -10
-33 -21z"/>
<path d="M5695 3758 c-11 -6 -26 -20 -33 -29 -7 -10 -37 -35 -67 -55 -31 -20
-58 -41 -63 -48 -8 -12 -127 -96 -137 -96 -4 0 -21 -11 -38 -24 -59 -45 -351
-183 -473 -224 -133 -45 -284 -80 -364 -83 -28 -2 -53 -6 -56 -11 -3 -4 -13
-8 -23 -8 -9 0 -26 -7 -37 -15 -19 -15 -18 -15 7 -37 15 -13 53 -41 85 -63 32
-22 67 -49 79 -60 12 -11 40 -32 63 -47 55 -37 352 -335 352 -354 0 -2 15 -25
34 -51 19 -27 71 -122 115 -212 45 -90 91 -175 101 -189 11 -14 20 -29 20 -34
0 -4 11 -26 25 -48 14 -22 25 -46 25 -54 0 -8 3 -16 8 -18 4 -1 18 -25 31 -53
25 -53 80 -141 118 -188 13 -16 23 -37 23 -48 0 -11 10 -23 24 -29 14 -5 32
-20 40 -32 20 -30 106 -82 176 -106 89 -31 153 -35 231 -16 76 19 99 35 79 59
-7 8 -10 25 -6 39 6 26 -17 56 -29 36 -3 -5 -27 -10 -53 -10 -45 0 -51 3 -124
72 -81 77 -142 171 -154 236 -4 20 -10 42 -14 47 -9 13 -19 102 -12 110 3 2
26 -13 51 -36 135 -119 183 -155 252 -190 137 -68 179 -79 314 -79 67 0 125 4
130 9 6 5 26 13 45 18 20 5 36 16 38 26 2 10 -35 57 -97 121 -55 57 -108 121
-119 143 -11 21 -29 47 -41 57 -12 11 -21 23 -21 28 0 5 -11 24 -25 42 -14 18
-25 37 -25 41 0 5 -6 16 -14 24 -17 19 -156 288 -156 303 0 5 -6 24 -14 41
-29 68 -36 89 -36 103 0 9 -6 30 -14 47 -19 42 -86 279 -86 305 0 11 -7 36
-15 55 -8 20 -15 54 -15 76 0 22 -4 43 -10 46 -5 3 -10 39 -10 79 0 53 -4 77
-15 86 -12 10 -15 39 -15 139 0 171 -6 187 -55 159z"/>
<path d="M4092 3135 c-13 -29 -15 -693 -2 -710 15 -21 29 -160 20 -200 -12
-53 -12 -55 4 -55 15 0 33 -101 21 -120 -4 -6 -1 -17 5 -25 7 -8 13 -44 14
-80 0 -36 4 -65 9 -65 4 0 7 -8 7 -19 0 -10 7 -24 15 -31 9 -8 15 -30 15 -56
0 -24 5 -44 10 -44 6 0 10 -27 10 -60 0 -45 4 -62 15 -66 9 -4 15 -19 15 -40
0 -19 4 -34 9 -34 5 0 11 -17 14 -37 2 -21 13 -58 22 -83 10 -25 21 -58 26
-75 7 -27 51 -150 84 -235 8 -19 14 -46 15 -59 0 -13 11 -32 25 -43 14 -11 25
-28 25 -38 0 -10 5 -20 11 -22 5 -2 11 -18 11 -36 1 -18 7 -36 14 -40 19 -11
93 -163 87 -179 -4 -11 3 -14 30 -11 l36 3 5 544 c3 307 10 547 15 550 5 3 11
16 12 29 5 28 23 30 27 2 2 -11 8 -20 13 -20 5 0 9 -8 9 -19 0 -10 7 -24 15
-31 8 -7 15 -21 15 -31 0 -11 3 -19 8 -19 4 0 18 -21 32 -47 23 -43 127 -185
165 -224 8 -9 15 -20 15 -26 0 -12 109 -123 121 -123 7 0 29 -14 137 -90 24
-17 74 -46 111 -65 38 -19 71 -41 74 -49 4 -9 18 -16 35 -16 15 0 33 -5 39
-11 8 -8 17 -8 32 0 22 12 27 26 12 35 -8 5 -26 100 -23 122 1 6 -9 21 -23 34
-15 14 -25 35 -25 51 0 15 -4 31 -10 34 -5 3 -10 20 -10 36 0 17 -6 32 -15 35
-10 4 -15 20 -15 45 0 22 -4 47 -9 57 -6 9 -21 51 -35 92 -13 41 -40 118 -59
170 -19 52 -38 104 -41 115 -4 11 -12 28 -17 37 -5 10 -9 25 -9 34 0 9 -11 25
-25 36 -16 12 -25 29 -25 48 0 15 -7 33 -15 40 -8 7 -15 21 -15 31 0 10 -4 21
-10 24 -5 3 -10 17 -10 30 0 13 -13 37 -28 53 -16 16 -35 44 -42 63 -8 19 -29
55 -47 81 -18 26 -33 52 -33 56 0 5 -16 27 -35 49 -19 23 -35 48 -35 57 0 9
-7 19 -15 22 -8 4 -15 17 -15 30 0 16 -6 24 -18 24 -19 0 -82 81 -82 105 0 8
-6 15 -13 15 -7 0 -20 8 -28 18 -9 9 -30 28 -48 42 -17 14 -31 28 -31 33 0 4
-11 19 -25 33 -14 14 -25 29 -25 34 0 6 -9 10 -20 10 -11 0 -23 7 -26 15 -4 8
-15 15 -26 15 -19 0 -68 45 -68 63 0 4 -6 7 -14 7 -8 0 -21 6 -28 13 -19 17
-56 37 -68 37 -6 0 -23 11 -38 25 -15 14 -30 25 -34 25 -3 0 -43 23 -87 50
-92 57 -122 62 -139 25z"/>
</g>
</svg>
